<mxfile host="65bd71144e">
    <diagram id="Gx9TXK_avPyda_GXq5-3" name="Page-1">
        <mxGraphModel dx="843" dy="782" grid="1" gridSize="10" guides="1" tooltips="1" connect="1" arrows="1" fold="1" page="1" pageScale="1" pageWidth="827" pageHeight="1169" math="0" shadow="0">
            <root>
                <mxCell id="0"/>
                <mxCell id="1" parent="0"/>
                <mxCell id="AuPY-KkGLdtQUHjNDRhn-1" value="" style="swimlane;startSize=0;" parent="1" vertex="1">
                    <mxGeometry x="60" y="290" width="770" height="500" as="geometry"/>
                </mxCell>
                <mxCell id="AuPY-KkGLdtQUHjNDRhn-2" value="サイドバー" style="rounded=1;whiteSpace=wrap;html=1;" parent="AuPY-KkGLdtQUHjNDRhn-1" vertex="1">
                    <mxGeometry width="140" height="500" as="geometry"/>
                </mxCell>
                <mxCell id="AuPY-KkGLdtQUHjNDRhn-3" value="&lt;b&gt;&lt;font style=&quot;font-size: 16px&quot;&gt;商品一覧&lt;/font&gt;&lt;/b&gt;" style="text;html=1;strokeColor=none;fillColor=none;align=center;verticalAlign=middle;whiteSpace=wrap;rounded=0;" parent="AuPY-KkGLdtQUHjNDRhn-1" vertex="1">
                    <mxGeometry x="160" y="10" width="110" height="40" as="geometry"/>
                </mxCell>
                <mxCell id="AuPY-KkGLdtQUHjNDRhn-4" value="" style="whiteSpace=wrap;html=1;aspect=fixed;fontSize=16;" parent="AuPY-KkGLdtQUHjNDRhn-1" vertex="1">
                    <mxGeometry x="180" y="110" width="70" height="70" as="geometry"/>
                </mxCell>
                <mxCell id="AuPY-KkGLdtQUHjNDRhn-5" value="お弁当" style="text;html=1;strokeColor=none;fillColor=none;align=center;verticalAlign=middle;whiteSpace=wrap;rounded=0;fontSize=16;" parent="AuPY-KkGLdtQUHjNDRhn-1" vertex="1">
                    <mxGeometry x="185" y="190" width="60" height="30" as="geometry"/>
                </mxCell>
                <mxCell id="AuPY-KkGLdtQUHjNDRhn-21" value="&lt;div&gt;&lt;span&gt;&lt;b&gt;カテゴリー1&lt;/b&gt;&lt;/span&gt;&lt;/div&gt;" style="text;html=1;strokeColor=none;fillColor=none;align=left;verticalAlign=middle;whiteSpace=wrap;rounded=0;fontSize=16;" parent="AuPY-KkGLdtQUHjNDRhn-1" vertex="1">
                    <mxGeometry x="180" y="70" width="120" height="30" as="geometry"/>
                </mxCell>
                <mxCell id="AuPY-KkGLdtQUHjNDRhn-22" value="" style="whiteSpace=wrap;html=1;aspect=fixed;fontSize=16;" parent="AuPY-KkGLdtQUHjNDRhn-1" vertex="1">
                    <mxGeometry x="280" y="110" width="70" height="70" as="geometry"/>
                </mxCell>
                <mxCell id="AuPY-KkGLdtQUHjNDRhn-23" value="お弁当" style="text;html=1;strokeColor=none;fillColor=none;align=center;verticalAlign=middle;whiteSpace=wrap;rounded=0;fontSize=16;" parent="AuPY-KkGLdtQUHjNDRhn-1" vertex="1">
                    <mxGeometry x="285" y="190" width="60" height="30" as="geometry"/>
                </mxCell>
                <mxCell id="AuPY-KkGLdtQUHjNDRhn-24" value="" style="whiteSpace=wrap;html=1;aspect=fixed;fontSize=16;" parent="AuPY-KkGLdtQUHjNDRhn-1" vertex="1">
                    <mxGeometry x="380" y="110" width="70" height="70" as="geometry"/>
                </mxCell>
                <mxCell id="AuPY-KkGLdtQUHjNDRhn-25" value="お弁当" style="text;html=1;strokeColor=none;fillColor=none;align=center;verticalAlign=middle;whiteSpace=wrap;rounded=0;fontSize=16;" parent="AuPY-KkGLdtQUHjNDRhn-1" vertex="1">
                    <mxGeometry x="385" y="190" width="60" height="30" as="geometry"/>
                </mxCell>
                <mxCell id="AuPY-KkGLdtQUHjNDRhn-26" value="" style="whiteSpace=wrap;html=1;aspect=fixed;fontSize=16;" parent="AuPY-KkGLdtQUHjNDRhn-1" vertex="1">
                    <mxGeometry x="480" y="110" width="70" height="70" as="geometry"/>
                </mxCell>
                <mxCell id="AuPY-KkGLdtQUHjNDRhn-27" value="お弁当" style="text;html=1;strokeColor=none;fillColor=none;align=center;verticalAlign=middle;whiteSpace=wrap;rounded=0;fontSize=16;" parent="AuPY-KkGLdtQUHjNDRhn-1" vertex="1">
                    <mxGeometry x="485" y="190" width="60" height="30" as="geometry"/>
                </mxCell>
                <mxCell id="AuPY-KkGLdtQUHjNDRhn-28" value="" style="whiteSpace=wrap;html=1;aspect=fixed;fontSize=16;" parent="AuPY-KkGLdtQUHjNDRhn-1" vertex="1">
                    <mxGeometry x="580" y="110" width="70" height="70" as="geometry"/>
                </mxCell>
                <mxCell id="AuPY-KkGLdtQUHjNDRhn-29" value="お弁当" style="text;html=1;strokeColor=none;fillColor=none;align=center;verticalAlign=middle;whiteSpace=wrap;rounded=0;fontSize=16;" parent="AuPY-KkGLdtQUHjNDRhn-1" vertex="1">
                    <mxGeometry x="585" y="190" width="60" height="30" as="geometry"/>
                </mxCell>
                <mxCell id="AuPY-KkGLdtQUHjNDRhn-30" value="" style="whiteSpace=wrap;html=1;aspect=fixed;fontSize=16;" parent="AuPY-KkGLdtQUHjNDRhn-1" vertex="1">
                    <mxGeometry x="180" y="230" width="70" height="70" as="geometry"/>
                </mxCell>
                <mxCell id="AuPY-KkGLdtQUHjNDRhn-31" value="お弁当" style="text;html=1;strokeColor=none;fillColor=none;align=center;verticalAlign=middle;whiteSpace=wrap;rounded=0;fontSize=16;" parent="AuPY-KkGLdtQUHjNDRhn-1" vertex="1">
                    <mxGeometry x="185" y="310" width="60" height="30" as="geometry"/>
                </mxCell>
                <mxCell id="AuPY-KkGLdtQUHjNDRhn-32" value="" style="whiteSpace=wrap;html=1;aspect=fixed;fontSize=16;" parent="AuPY-KkGLdtQUHjNDRhn-1" vertex="1">
                    <mxGeometry x="280" y="230" width="70" height="70" as="geometry"/>
                </mxCell>
                <mxCell id="AuPY-KkGLdtQUHjNDRhn-33" value="お弁当" style="text;html=1;strokeColor=none;fillColor=none;align=center;verticalAlign=middle;whiteSpace=wrap;rounded=0;fontSize=16;" parent="AuPY-KkGLdtQUHjNDRhn-1" vertex="1">
                    <mxGeometry x="285" y="310" width="60" height="30" as="geometry"/>
                </mxCell>
                <mxCell id="AuPY-KkGLdtQUHjNDRhn-34" value="" style="whiteSpace=wrap;html=1;aspect=fixed;fontSize=16;" parent="AuPY-KkGLdtQUHjNDRhn-1" vertex="1">
                    <mxGeometry x="180" y="390" width="70" height="70" as="geometry"/>
                </mxCell>
                <mxCell id="AuPY-KkGLdtQUHjNDRhn-35" value="お弁当" style="text;html=1;strokeColor=none;fillColor=none;align=center;verticalAlign=middle;whiteSpace=wrap;rounded=0;fontSize=16;" parent="AuPY-KkGLdtQUHjNDRhn-1" vertex="1">
                    <mxGeometry x="185" y="470" width="60" height="30" as="geometry"/>
                </mxCell>
                <mxCell id="AuPY-KkGLdtQUHjNDRhn-36" value="&lt;div&gt;&lt;span&gt;&lt;b&gt;カテゴリー2&lt;/b&gt;&lt;/span&gt;&lt;/div&gt;" style="text;html=1;strokeColor=none;fillColor=none;align=left;verticalAlign=middle;whiteSpace=wrap;rounded=0;fontSize=16;" parent="AuPY-KkGLdtQUHjNDRhn-1" vertex="1">
                    <mxGeometry x="180" y="350" width="120" height="30" as="geometry"/>
                </mxCell>
                <mxCell id="AuPY-KkGLdtQUHjNDRhn-37" value="" style="whiteSpace=wrap;html=1;aspect=fixed;fontSize=16;" parent="AuPY-KkGLdtQUHjNDRhn-1" vertex="1">
                    <mxGeometry x="280" y="390" width="70" height="70" as="geometry"/>
                </mxCell>
                <mxCell id="AuPY-KkGLdtQUHjNDRhn-38" value="お弁当" style="text;html=1;strokeColor=none;fillColor=none;align=center;verticalAlign=middle;whiteSpace=wrap;rounded=0;fontSize=16;" parent="AuPY-KkGLdtQUHjNDRhn-1" vertex="1">
                    <mxGeometry x="285" y="470" width="60" height="30" as="geometry"/>
                </mxCell>
                <mxCell id="AuPY-KkGLdtQUHjNDRhn-39" value="" style="whiteSpace=wrap;html=1;aspect=fixed;fontSize=16;" parent="AuPY-KkGLdtQUHjNDRhn-1" vertex="1">
                    <mxGeometry x="380" y="390" width="70" height="70" as="geometry"/>
                </mxCell>
                <mxCell id="AuPY-KkGLdtQUHjNDRhn-40" value="お弁当" style="text;html=1;strokeColor=none;fillColor=none;align=center;verticalAlign=middle;whiteSpace=wrap;rounded=0;fontSize=16;" parent="AuPY-KkGLdtQUHjNDRhn-1" vertex="1">
                    <mxGeometry x="385" y="470" width="60" height="30" as="geometry"/>
                </mxCell>
                <mxCell id="AuPY-KkGLdtQUHjNDRhn-41" value="" style="whiteSpace=wrap;html=1;aspect=fixed;fontSize=16;" parent="AuPY-KkGLdtQUHjNDRhn-1" vertex="1">
                    <mxGeometry x="480" y="390" width="70" height="70" as="geometry"/>
                </mxCell>
                <mxCell id="AuPY-KkGLdtQUHjNDRhn-42" value="お弁当" style="text;html=1;strokeColor=none;fillColor=none;align=center;verticalAlign=middle;whiteSpace=wrap;rounded=0;fontSize=16;" parent="AuPY-KkGLdtQUHjNDRhn-1" vertex="1">
                    <mxGeometry x="485" y="470" width="60" height="30" as="geometry"/>
                </mxCell>
                <mxCell id="AuPY-KkGLdtQUHjNDRhn-43" value="" style="whiteSpace=wrap;html=1;aspect=fixed;fontSize=16;" parent="AuPY-KkGLdtQUHjNDRhn-1" vertex="1">
                    <mxGeometry x="580" y="390" width="70" height="70" as="geometry"/>
                </mxCell>
                <mxCell id="AuPY-KkGLdtQUHjNDRhn-44" value="お弁当" style="text;html=1;strokeColor=none;fillColor=none;align=center;verticalAlign=middle;whiteSpace=wrap;rounded=0;fontSize=16;" parent="AuPY-KkGLdtQUHjNDRhn-1" vertex="1">
                    <mxGeometry x="585" y="470" width="60" height="30" as="geometry"/>
                </mxCell>
                <mxCell id="AuPY-KkGLdtQUHjNDRhn-45" value="&lt;font color=&quot;#ffffff&quot;&gt;新規登録&lt;/font&gt;" style="rounded=1;whiteSpace=wrap;html=1;fontSize=16;fillColor=#3399FF;strokeColor=#6c8ebf;" parent="AuPY-KkGLdtQUHjNDRhn-1" vertex="1">
                    <mxGeometry x="670" y="15" width="80" height="30" as="geometry"/>
                </mxCell>
                <mxCell id="AuPY-KkGLdtQUHjNDRhn-46" style="edgeStyle=orthogonalEdgeStyle;rounded=0;orthogonalLoop=1;jettySize=auto;html=1;fontSize=16;" parent="1" source="AuPY-KkGLdtQUHjNDRhn-45" edge="1">
                    <mxGeometry relative="1" as="geometry">
                        <mxPoint x="880" y="319.9999999999998" as="targetPoint"/>
                    </mxGeometry>
                </mxCell>
                <mxCell id="AuPY-KkGLdtQUHjNDRhn-47" value="" style="swimlane;startSize=0;" parent="1" vertex="1">
                    <mxGeometry x="884" y="290" width="770" height="500" as="geometry"/>
                </mxCell>
                <mxCell id="AuPY-KkGLdtQUHjNDRhn-48" value="サイドバー" style="rounded=1;whiteSpace=wrap;html=1;" parent="AuPY-KkGLdtQUHjNDRhn-47" vertex="1">
                    <mxGeometry width="140" height="500" as="geometry"/>
                </mxCell>
                <mxCell id="AuPY-KkGLdtQUHjNDRhn-49" value="&lt;b&gt;&lt;font style=&quot;font-size: 16px&quot;&gt;商品一覧&lt;/font&gt;&lt;/b&gt;" style="text;html=1;strokeColor=none;fillColor=none;align=center;verticalAlign=middle;whiteSpace=wrap;rounded=0;" parent="AuPY-KkGLdtQUHjNDRhn-47" vertex="1">
                    <mxGeometry x="160" y="10" width="110" height="40" as="geometry"/>
                </mxCell>
                <mxCell id="AuPY-KkGLdtQUHjNDRhn-50" value="" style="whiteSpace=wrap;html=1;aspect=fixed;fontSize=16;" parent="AuPY-KkGLdtQUHjNDRhn-47" vertex="1">
                    <mxGeometry x="180" y="110" width="70" height="70" as="geometry"/>
                </mxCell>
                <mxCell id="AuPY-KkGLdtQUHjNDRhn-51" value="お弁当" style="text;html=1;strokeColor=none;fillColor=none;align=center;verticalAlign=middle;whiteSpace=wrap;rounded=0;fontSize=16;" parent="AuPY-KkGLdtQUHjNDRhn-47" vertex="1">
                    <mxGeometry x="185" y="190" width="60" height="30" as="geometry"/>
                </mxCell>
                <mxCell id="AuPY-KkGLdtQUHjNDRhn-52" value="&lt;div&gt;&lt;span&gt;&lt;b&gt;カテゴリー1&lt;/b&gt;&lt;/span&gt;&lt;/div&gt;" style="text;html=1;strokeColor=none;fillColor=none;align=left;verticalAlign=middle;whiteSpace=wrap;rounded=0;fontSize=16;" parent="AuPY-KkGLdtQUHjNDRhn-47" vertex="1">
                    <mxGeometry x="180" y="70" width="120" height="30" as="geometry"/>
                </mxCell>
                <mxCell id="AuPY-KkGLdtQUHjNDRhn-53" value="" style="whiteSpace=wrap;html=1;aspect=fixed;fontSize=16;" parent="AuPY-KkGLdtQUHjNDRhn-47" vertex="1">
                    <mxGeometry x="280" y="110" width="70" height="70" as="geometry"/>
                </mxCell>
                <mxCell id="AuPY-KkGLdtQUHjNDRhn-54" value="お弁当" style="text;html=1;strokeColor=none;fillColor=none;align=center;verticalAlign=middle;whiteSpace=wrap;rounded=0;fontSize=16;" parent="AuPY-KkGLdtQUHjNDRhn-47" vertex="1">
                    <mxGeometry x="285" y="190" width="60" height="30" as="geometry"/>
                </mxCell>
                <mxCell id="AuPY-KkGLdtQUHjNDRhn-55" value="" style="whiteSpace=wrap;html=1;aspect=fixed;fontSize=16;" parent="AuPY-KkGLdtQUHjNDRhn-47" vertex="1">
                    <mxGeometry x="380" y="110" width="70" height="70" as="geometry"/>
                </mxCell>
                <mxCell id="AuPY-KkGLdtQUHjNDRhn-56" value="お弁当" style="text;html=1;strokeColor=none;fillColor=none;align=center;verticalAlign=middle;whiteSpace=wrap;rounded=0;fontSize=16;" parent="AuPY-KkGLdtQUHjNDRhn-47" vertex="1">
                    <mxGeometry x="385" y="190" width="60" height="30" as="geometry"/>
                </mxCell>
                <mxCell id="AuPY-KkGLdtQUHjNDRhn-57" value="" style="whiteSpace=wrap;html=1;aspect=fixed;fontSize=16;" parent="AuPY-KkGLdtQUHjNDRhn-47" vertex="1">
                    <mxGeometry x="480" y="110" width="70" height="70" as="geometry"/>
                </mxCell>
                <mxCell id="AuPY-KkGLdtQUHjNDRhn-58" value="お弁当" style="text;html=1;strokeColor=none;fillColor=none;align=center;verticalAlign=middle;whiteSpace=wrap;rounded=0;fontSize=16;" parent="AuPY-KkGLdtQUHjNDRhn-47" vertex="1">
                    <mxGeometry x="485" y="190" width="60" height="30" as="geometry"/>
                </mxCell>
                <mxCell id="AuPY-KkGLdtQUHjNDRhn-59" value="" style="whiteSpace=wrap;html=1;aspect=fixed;fontSize=16;" parent="AuPY-KkGLdtQUHjNDRhn-47" vertex="1">
                    <mxGeometry x="580" y="110" width="70" height="70" as="geometry"/>
                </mxCell>
                <mxCell id="AuPY-KkGLdtQUHjNDRhn-60" value="お弁当" style="text;html=1;strokeColor=none;fillColor=none;align=center;verticalAlign=middle;whiteSpace=wrap;rounded=0;fontSize=16;" parent="AuPY-KkGLdtQUHjNDRhn-47" vertex="1">
                    <mxGeometry x="585" y="190" width="60" height="30" as="geometry"/>
                </mxCell>
                <mxCell id="AuPY-KkGLdtQUHjNDRhn-61" value="" style="whiteSpace=wrap;html=1;aspect=fixed;fontSize=16;" parent="AuPY-KkGLdtQUHjNDRhn-47" vertex="1">
                    <mxGeometry x="180" y="230" width="70" height="70" as="geometry"/>
                </mxCell>
                <mxCell id="AuPY-KkGLdtQUHjNDRhn-62" value="お弁当" style="text;html=1;strokeColor=none;fillColor=none;align=center;verticalAlign=middle;whiteSpace=wrap;rounded=0;fontSize=16;" parent="AuPY-KkGLdtQUHjNDRhn-47" vertex="1">
                    <mxGeometry x="185" y="310" width="60" height="30" as="geometry"/>
                </mxCell>
                <mxCell id="AuPY-KkGLdtQUHjNDRhn-63" value="" style="whiteSpace=wrap;html=1;aspect=fixed;fontSize=16;" parent="AuPY-KkGLdtQUHjNDRhn-47" vertex="1">
                    <mxGeometry x="280" y="230" width="70" height="70" as="geometry"/>
                </mxCell>
                <mxCell id="AuPY-KkGLdtQUHjNDRhn-64" value="お弁当" style="text;html=1;strokeColor=none;fillColor=none;align=center;verticalAlign=middle;whiteSpace=wrap;rounded=0;fontSize=16;" parent="AuPY-KkGLdtQUHjNDRhn-47" vertex="1">
                    <mxGeometry x="285" y="310" width="60" height="30" as="geometry"/>
                </mxCell>
                <mxCell id="AuPY-KkGLdtQUHjNDRhn-65" value="" style="whiteSpace=wrap;html=1;aspect=fixed;fontSize=16;" parent="AuPY-KkGLdtQUHjNDRhn-47" vertex="1">
                    <mxGeometry x="180" y="390" width="70" height="70" as="geometry"/>
                </mxCell>
                <mxCell id="AuPY-KkGLdtQUHjNDRhn-66" value="お弁当" style="text;html=1;strokeColor=none;fillColor=none;align=center;verticalAlign=middle;whiteSpace=wrap;rounded=0;fontSize=16;" parent="AuPY-KkGLdtQUHjNDRhn-47" vertex="1">
                    <mxGeometry x="185" y="470" width="60" height="30" as="geometry"/>
                </mxCell>
                <mxCell id="AuPY-KkGLdtQUHjNDRhn-67" value="&lt;div&gt;&lt;span&gt;&lt;b&gt;カテゴリー2&lt;/b&gt;&lt;/span&gt;&lt;/div&gt;" style="text;html=1;strokeColor=none;fillColor=none;align=left;verticalAlign=middle;whiteSpace=wrap;rounded=0;fontSize=16;" parent="AuPY-KkGLdtQUHjNDRhn-47" vertex="1">
                    <mxGeometry x="180" y="350" width="120" height="30" as="geometry"/>
                </mxCell>
                <mxCell id="AuPY-KkGLdtQUHjNDRhn-68" value="" style="whiteSpace=wrap;html=1;aspect=fixed;fontSize=16;" parent="AuPY-KkGLdtQUHjNDRhn-47" vertex="1">
                    <mxGeometry x="280" y="390" width="70" height="70" as="geometry"/>
                </mxCell>
                <mxCell id="AuPY-KkGLdtQUHjNDRhn-69" value="お弁当" style="text;html=1;strokeColor=none;fillColor=none;align=center;verticalAlign=middle;whiteSpace=wrap;rounded=0;fontSize=16;" parent="AuPY-KkGLdtQUHjNDRhn-47" vertex="1">
                    <mxGeometry x="285" y="470" width="60" height="30" as="geometry"/>
                </mxCell>
                <mxCell id="AuPY-KkGLdtQUHjNDRhn-70" value="" style="whiteSpace=wrap;html=1;aspect=fixed;fontSize=16;" parent="AuPY-KkGLdtQUHjNDRhn-47" vertex="1">
                    <mxGeometry x="380" y="390" width="70" height="70" as="geometry"/>
                </mxCell>
                <mxCell id="AuPY-KkGLdtQUHjNDRhn-71" value="お弁当" style="text;html=1;strokeColor=none;fillColor=none;align=center;verticalAlign=middle;whiteSpace=wrap;rounded=0;fontSize=16;" parent="AuPY-KkGLdtQUHjNDRhn-47" vertex="1">
                    <mxGeometry x="385" y="470" width="60" height="30" as="geometry"/>
                </mxCell>
                <mxCell id="AuPY-KkGLdtQUHjNDRhn-72" value="" style="whiteSpace=wrap;html=1;aspect=fixed;fontSize=16;" parent="AuPY-KkGLdtQUHjNDRhn-47" vertex="1">
                    <mxGeometry x="480" y="390" width="70" height="70" as="geometry"/>
                </mxCell>
                <mxCell id="AuPY-KkGLdtQUHjNDRhn-73" value="お弁当" style="text;html=1;strokeColor=none;fillColor=none;align=center;verticalAlign=middle;whiteSpace=wrap;rounded=0;fontSize=16;" parent="AuPY-KkGLdtQUHjNDRhn-47" vertex="1">
                    <mxGeometry x="485" y="470" width="60" height="30" as="geometry"/>
                </mxCell>
                <mxCell id="AuPY-KkGLdtQUHjNDRhn-74" value="" style="whiteSpace=wrap;html=1;aspect=fixed;fontSize=16;" parent="AuPY-KkGLdtQUHjNDRhn-47" vertex="1">
                    <mxGeometry x="580" y="390" width="70" height="70" as="geometry"/>
                </mxCell>
                <mxCell id="AuPY-KkGLdtQUHjNDRhn-75" value="お弁当" style="text;html=1;strokeColor=none;fillColor=none;align=center;verticalAlign=middle;whiteSpace=wrap;rounded=0;fontSize=16;" parent="AuPY-KkGLdtQUHjNDRhn-47" vertex="1">
                    <mxGeometry x="585" y="470" width="60" height="30" as="geometry"/>
                </mxCell>
                <mxCell id="AuPY-KkGLdtQUHjNDRhn-76" value="新規登録" style="rounded=1;whiteSpace=wrap;html=1;fontSize=16;fillColor=#dae8fc;strokeColor=#6c8ebf;" parent="AuPY-KkGLdtQUHjNDRhn-47" vertex="1">
                    <mxGeometry x="670" y="15" width="80" height="30" as="geometry"/>
                </mxCell>
                <mxCell id="AuPY-KkGLdtQUHjNDRhn-85" value="メニューの入力フォームを&lt;br&gt;モーダルで表示" style="rounded=0;whiteSpace=wrap;html=1;fontSize=16;fillColor=default;" parent="AuPY-KkGLdtQUHjNDRhn-47" vertex="1">
                    <mxGeometry x="222.5" y="65" width="385" height="370" as="geometry"/>
                </mxCell>
            </root>
        </mxGraphModel>
    </diagram>
</mxfile>
